<svg id="exMakGWDR9i1" xmlns="http://www.w3.org/2000/svg" xmlns:xlink="http://www.w3.org/1999/xlink" viewBox="0 0 300 300" shape-rendering="geometricPrecision" text-rendering="geometricPrecision" project-id="3aab52e13eea45498df2e4a035805407" export-id="dabdbc74909842cfb53b065f37a3bcc9" cached="false"><rect width="176.779026" height="131.086142" rx="0" ry="0" transform="translate(61.610488 108.614232)" fill="#bbb" stroke-width="0"/><rect width="77.902622" height="69.662921" rx="0" ry="0" transform="translate(111.048689 38.951311)" fill="#bbb" stroke-width="0"/><g transform="translate(0 0.000001)"><rect width="17.228465" height="16.479401" rx="0" ry="0" transform="translate(71.722847 119.101133)" fill="#fff" stroke-width="0"/><rect width="17.228465" height="16.479401" rx="0" ry="0" transform="translate(102.434457 119.101133)" fill="#fff" stroke-width="0"/><rect width="17.228465" height="16.479401" rx="0" ry="0" transform="translate(141.385768 119.101133)" fill="#fff" stroke-width="0"/><rect width="17.228465" height="16.479401" rx="0" ry="0" transform="translate(180.337079 119.101133)" fill="#fff" stroke-width="0"/><rect width="17.228465" height="16.479401" rx="0" ry="0" transform="translate(211.583003 119.101133)" fill="#fff" stroke-width="0"/></g><g transform="translate(0 30.898865)"><rect width="17.228465" height="16.479401" rx="0" ry="0" transform="translate(71.722847 119.101133)" fill="#fff" stroke-width="0"/><rect width="17.228465" height="16.479401" rx="0" ry="0" transform="translate(102.434457 119.101133)" fill="#fff" stroke-width="0"/><rect width="17.228465" height="16.479401" rx="0" ry="0" transform="translate(141.385768 119.101133)" fill="#fff" stroke-width="0"/><rect width="17.228465" height="16.479401" rx="0" ry="0" transform="translate(180.337079 119.101133)" fill="#fff" stroke-width="0"/><rect width="17.228465" height="16.479401" rx="0" ry="0" transform="translate(211.583003 119.101133)" fill="#fff" stroke-width="0"/></g><g transform="translate(-.267166 64.656656)"><rect width="17.228465" height="16.479401" rx="0" ry="0" transform="translate(71.722847 119.101133)" fill="#fff" stroke-width="0"/><rect width="17.228465" height="16.479401" rx="0" ry="0" transform="translate(102.434457 119.101133)" fill="#fff" stroke-width="0"/><rect width="17.228465" height="16.479401" rx="0" ry="0" transform="translate(141.385768 119.101133)" fill="#fff" stroke-width="0"/><rect width="17.228465" height="16.479401" rx="0" ry="0" transform="translate(180.337079 119.101133)" fill="#fff" stroke-width="0"/><rect width="17.228465" height="16.479401" rx="0" ry="0" transform="translate(211.583003 119.101133)" fill="#fff" stroke-width="0"/></g><g transform="translate(.000004 95.717058)"><rect width="17.228465" height="16.479401" rx="0" ry="0" transform="translate(71.722847 119.101133)" fill="#fff" stroke-width="0"/><rect width="17.228465" height="16.479401" rx="0" ry="0" transform="translate(102.434457 119.101133)" fill="#fff" stroke-width="0"/><rect width="17.228465" height="16.479401" rx="0" ry="0" transform="translate(141.385768 119.101133)" fill="#fff" stroke-width="0"/><rect width="17.228465" height="16.479401" rx="0" ry="0" transform="translate(180.337079 119.101133)" fill="#fff" stroke-width="0"/><rect width="17.228465" height="16.479401" rx="0" ry="0" transform="translate(211.583003 119.101133)" fill="#fff" stroke-width="0"/></g><ellipse rx="27.975034" ry="24.848321" transform="matrix(.837026 0 0 0.954543 149.732835 73.782771)" fill="#f9f9f9" stroke-width="0"/></svg>
